<svg width="18" height="15" viewBox="0 0 18 15" fill="none" xmlns="http://www.w3.org/2000/svg">
<g clip-path="url(#clip0_80_76)">
<path d="M14.7516 2.04481C14.7467 2.03534 14.7387 2.02805 14.7291 2.0243C13.6576 1.51214 12.527 1.14679 11.3653 0.937387C11.3549 0.935395 11.3441 0.936869 11.3345 0.9416C11.325 0.946331 11.317 0.954081 11.3119 0.963755C11.1578 1.25505 11.018 1.55426 10.8928 1.86024C9.64001 1.66215 8.36566 1.66215 7.11284 1.86024C6.98721 1.5535 6.84543 1.25422 6.68815 0.963755C6.68272 0.954369 6.67476 0.946861 6.66525 0.942171C6.65575 0.93748 6.64512 0.935816 6.63471 0.937387C5.47107 1.14585 4.33842 1.51122 3.26534 2.0243C3.25593 2.02846 3.24804 2.03564 3.24284 2.04481C1.09971 5.38172 0.511902 8.63368 0.798777 11.8475C0.799589 11.8556 0.802009 11.8635 0.805883 11.8705C0.809756 11.8776 0.814999 11.8837 0.821277 11.8886C2.06964 12.8504 3.46574 13.5845 4.95003 14.0595C4.96069 14.0629 4.97213 14.0628 4.98272 14.0591C4.99331 14.0554 5.00254 14.0484 5.00909 14.0389C5.32756 13.5873 5.60976 13.1092 5.85284 12.6093C5.85607 12.6024 5.85791 12.5949 5.85824 12.5872C5.85856 12.5796 5.85737 12.5719 5.85473 12.5648C5.85209 12.5576 5.84806 12.5511 5.8429 12.5457C5.83773 12.5402 5.83154 12.5359 5.82471 12.5331C5.3788 12.3551 4.94713 12.1406 4.53378 11.8915C4.52647 11.8868 4.52035 11.8804 4.51592 11.8728C4.5115 11.8651 4.5089 11.8565 4.50835 11.8476C4.5078 11.8387 4.50931 11.8298 4.51276 11.8216C4.5162 11.8135 4.52148 11.8063 4.52815 11.8007C4.61534 11.7333 4.70253 11.663 4.78409 11.5927C4.79129 11.5861 4.80013 11.5818 4.80959 11.5802C4.81904 11.5787 4.82873 11.5799 4.83753 11.5839C7.54315 12.87 10.4738 12.87 13.1485 11.5839C13.157 11.5795 13.1665 11.5778 13.176 11.5788C13.1854 11.5798 13.1944 11.5836 13.2019 11.5897C13.2835 11.66 13.3706 11.7333 13.4578 11.8007C13.4645 11.8063 13.4698 11.8135 13.4732 11.8216C13.4767 11.8298 13.4782 11.8387 13.4776 11.8476C13.4771 11.8565 13.4745 11.8651 13.4701 11.8728C13.4656 11.8804 13.4595 11.8868 13.4522 11.8915C13.0399 12.1419 12.6081 12.3555 12.1613 12.5302C12.1544 12.533 12.1483 12.5373 12.1431 12.5427C12.1379 12.5482 12.1339 12.5547 12.1313 12.5619C12.1286 12.569 12.1274 12.5766 12.1277 12.5843C12.1281 12.592 12.1299 12.5995 12.1331 12.6063C12.3805 13.1037 12.6625 13.5816 12.9769 14.036C12.9835 14.0454 12.9927 14.0525 13.0033 14.0562C13.0139 14.0598 13.0253 14.06 13.036 14.0565C14.5245 13.5837 15.9247 12.8495 17.176 11.8856C17.1824 11.8809 17.1877 11.8748 17.1916 11.8677C17.1955 11.8606 17.1978 11.8528 17.1985 11.8446C17.5416 8.1327 16.6191 4.90711 14.7516 2.04481ZM6.25784 9.89051C5.44221 9.89051 4.77284 9.11122 4.77284 8.15614C4.77284 7.20106 5.43096 6.41883 6.25784 6.41883C7.09315 6.41883 7.7569 7.20399 7.74284 8.15321C7.74284 9.11122 7.08471 9.89051 6.25784 9.89051ZM11.7535 9.89051C10.9378 9.89051 10.2685 9.11122 10.2685 8.15614C10.2685 7.20106 10.9238 6.41883 11.7535 6.41883C12.5888 6.41883 13.2525 7.20399 13.2385 8.15321C13.2385 9.11122 12.586 9.89051 11.7535 9.89051Z" fill="white"/>
</g>
<defs>
<clipPath id="clip0_80_76">
<rect width="18" height="15" fill="white"/>
</clipPath>
</defs>
</svg>
