<svg width="17" height="17" viewBox="0 0 17 17" fill="none" xmlns="http://www.w3.org/2000/svg">
<g clip-path="url(#clip0_80_72)">
<path d="M17 8.5C17 3.80508 13.1949 0 8.5 0C3.80508 0 0 3.80508 0 8.5C0 12.4844 2.7459 15.8313 6.44805 16.751V11.0965H4.69492V8.5H6.44805V7.38105C6.44805 4.48906 7.75625 3.14766 10.5984 3.14766C11.1363 3.14766 12.066 3.25391 12.4479 3.36016V5.71094C12.2486 5.69102 11.9 5.67773 11.465 5.67773C10.0705 5.67773 9.53262 6.20566 9.53262 7.57695V8.5H12.3084L11.8303 11.0965H9.5293V16.9369C13.7395 16.4289 17 12.8463 17 8.5Z" fill="white"/>
</g>
<defs>
<clipPath id="clip0_80_72">
<rect width="17" height="17" fill="white"/>
</clipPath>
</defs>
</svg>
