<svg width="16" height="19" viewBox="0 0 16 19" fill="none" xmlns="http://www.w3.org/2000/svg">
<g clip-path="url(#clip0_80_74)">
<path d="M8.00381 5.23257C5.73238 5.23257 3.90024 7.13628 3.90024 9.49644C3.90024 11.8566 5.73238 13.7603 8.00381 13.7603C10.2752 13.7603 12.1074 11.8566 12.1074 9.49644C12.1074 7.13628 10.2752 5.23257 8.00381 5.23257ZM8.00381 12.2685C6.53595 12.2685 5.33595 11.0253 5.33595 9.49644C5.33595 7.96753 6.53238 6.72437 8.00381 6.72437C9.47524 6.72437 10.6717 7.96753 10.6717 9.49644C10.6717 11.0253 9.47167 12.2685 8.00381 12.2685ZM13.2324 5.05815C13.2324 5.61108 12.8038 6.05269 12.2752 6.05269C11.7431 6.05269 11.3181 5.60737 11.3181 5.05815C11.3181 4.50894 11.7467 4.06362 12.2752 4.06362C12.8038 4.06362 13.2324 4.50894 13.2324 5.05815ZM15.9502 6.06753C15.8895 4.7353 15.5967 3.55522 14.6574 2.58296C13.7217 1.61069 12.586 1.3064 11.3038 1.2396C9.98238 1.16167 6.02167 1.16167 4.70024 1.2396C3.42167 1.30269 2.28595 1.60698 1.34667 2.57925C0.40738 3.55151 0.118094 4.73159 0.0538086 6.06382C-0.0211914 7.43687 -0.0211914 11.5523 0.0538086 12.9253C0.114523 14.2576 0.40738 15.4376 1.34667 16.4099C2.28595 17.3822 3.41809 17.6865 4.70024 17.7533C6.02167 17.8312 9.98238 17.8312 11.3038 17.7533C12.586 17.6902 13.7217 17.3859 14.6574 16.4099C15.5931 15.4376 15.886 14.2576 15.9502 12.9253C16.0252 11.5523 16.0252 7.44058 15.9502 6.06753ZM14.2431 14.3986C13.9645 15.1259 13.4252 15.6863 12.7217 15.9794C11.6681 16.4136 9.16809 16.3134 8.00381 16.3134C6.83952 16.3134 4.33595 16.4099 3.28595 15.9794C2.58595 15.69 2.04667 15.1296 1.76452 14.3986C1.34667 13.3039 1.44309 10.7062 1.44309 9.49644C1.44309 8.28667 1.35024 5.6853 1.76452 4.59429C2.04309 3.86694 2.58238 3.30659 3.28595 3.01343C4.33952 2.57925 6.83952 2.67944 8.00381 2.67944C9.16809 2.67944 11.6717 2.58296 12.7217 3.01343C13.4217 3.30288 13.961 3.86323 14.2431 4.59429C14.661 5.68901 14.5645 8.28667 14.5645 9.49644C14.5645 10.7062 14.661 13.3076 14.2431 14.3986Z" fill="white"/>
</g>
<defs>
<clipPath id="clip0_80_74">
<rect width="16" height="19" fill="white"/>
</clipPath>
</defs>
</svg>
