<svg width="18" height="15" viewBox="0 0 18 15" fill="none" xmlns="http://www.w3.org/2000/svg">
<path d="M17.1783 3.63574C16.9814 2.94141 16.4033 2.39648 15.6689 2.21191C14.3377 1.875 9.0002 1.875 9.0002 1.875C9.0002 1.875 3.6627 1.875 2.33145 2.21191C1.59707 2.39648 1.01895 2.94141 0.82207 3.63574C0.46582 4.89258 0.46582 7.51172 0.46582 7.51172C0.46582 7.51172 0.46582 10.1309 0.82207 11.3877C1.01895 12.082 1.59707 12.6035 2.33145 12.7881C3.6627 13.125 9.0002 13.125 9.0002 13.125C9.0002 13.125 14.3377 13.125 15.6689 12.7881C16.4033 12.6035 16.9814 12.0791 17.1783 11.3877C17.5346 10.1309 17.5346 7.51172 17.5346 7.51172C17.5346 7.51172 17.5346 4.89258 17.1783 3.63574ZM7.25645 9.89062V5.13281L11.7158 7.51172L7.25645 9.89062Z" fill="white"/>
</svg>
